<?xml version="1.0" standalone="no"?>
<!DOCTYPE svg PUBLIC "-//W3C//DTD SVG 20010904//EN"
 "http://www.w3.org/TR/2001/REC-SVG-20010904/DTD/svg10.dtd">
<svg version="1.0" xmlns="http://www.w3.org/2000/svg"
 width="148.000000pt" height="83.000000pt" viewBox="0 0 148.000000 83.000000"
 preserveAspectRatio="xMidYMid meet">
<metadata>
Created by potrace 1.10, written by Peter Selinger 2001-2011
</metadata>
<g transform="translate(0.000000,83.000000) scale(0.100000,-0.100000)"
fill="#000000" stroke="none">
<path d="M781 774 c-30 -15 -61 -40 -70 -56 -15 -26 -21 -28 -77 -28 -49 0
-68 -5 -105 -29 -26 -16 -51 -42 -58 -59 -8 -20 -22 -32 -40 -35 -37 -8 -85
-49 -101 -87 -14 -33 -31 -38 -51 -14 -38 47 -120 57 -184 23 -86 -46 -94 -79
-20 -79 67 0 91 -14 131 -77 54 -86 74 -98 164 -97 l76 2 25 -52 c30 -59 91
-110 152 -127 54 -14 135 3 176 36 l28 24 29 -31 c56 -59 142 -75 213 -39 36
19 81 67 93 102 5 11 14 15 31 12 45 -9 135 25 182 68 59 55 79 109 73 198 -4
59 -11 77 -39 118 -59 82 -179 125 -262 94 -22 -9 -27 -6 -38 21 -33 81 -107
129 -209 135 -56 4 -72 1 -119 -23z m221 -50 c27 -19 51 -49 71 -87 22 -45 33
-57 45 -52 76 32 139 27 205 -15 51 -32 79 -83 85 -156 9 -105 -77 -202 -182
-206 -56 -3 -91 16 -111 57 -29 63 -10 121 50 149 57 27 105 5 105 -49 0 -36
-12 -50 -53 -60 -21 -6 -27 -13 -25 -29 2 -17 9 -20 32 -18 91 11 125 115 61
185 -21 22 -34 27 -73 27 -135 0 -205 -154 -117 -258 34 -41 32 -56 -17 -103
-41 -40 -44 -41 -97 -37 -48 4 -59 10 -93 46 -33 35 -38 48 -38 87 0 38 5 52
29 76 20 19 40 29 60 29 24 0 31 4 31 20 0 16 -7 20 -37 20 -82 0 -137 -68
-131 -159 3 -45 3 -46 -42 -68 -84 -43 -180 -21 -237 54 -23 30 -28 46 -28 94
0 49 4 63 26 84 50 50 133 42 169 -17 35 -58 21 -105 -36 -122 -29 -9 -57 19
-51 50 5 30 -7 48 -27 41 -10 -4 -16 -18 -16 -41 0 -48 8 -65 41 -81 85 -44
174 31 149 125 -22 83 -85 126 -171 118 -40 -4 -57 -12 -85 -39 -19 -19 -37
-45 -41 -59 -10 -42 -23 -50 -77 -50 -80 0 -92 7 -136 77 -40 63 -56 75 -115
88 -27 7 -28 8 -10 15 36 15 87 10 121 -11 19 -11 34 -25 34 -30 0 -10 30 -12
54 -3 9 3 31 28 50 54 28 39 42 49 74 55 31 5 43 13 52 35 20 47 61 79 113 86
l47 7 0 -44 c0 -75 48 -132 125 -149 49 -11 100 5 142 44 29 27 36 41 40 82 6
61 -19 98 -76 114 -41 11 -65 6 -93 -18 -32 -27 -18 -122 18 -122 20 0 28 24
15 48 -16 30 -3 52 29 52 53 0 81 -50 55 -99 -55 -108 -231 -52 -205 65 12 53
34 79 92 109 70 35 140 32 200 -11z"/>
</g>
</svg>
